#!OML:ASF E:\Steps\Project 1\Capture day 1\Session 2\Subject.ASF
:FULLY-SPECIFIED
:DEGREES
326
root 8.579 16.2201 17.2911 -158.737 -1.56058 179.611
lowerback -23.536 -2.33151 -3.90489
upperback 1.54917 -2.23 0.907802
thorax 15.2952 -1.42033 2.47134
lowerneck -2.1613 -3.38083 -1.13221
upperneck 17.7654 -4.03351 3.40427
head 5.80761 -1.38781 1.07346
rclavicle 1.14301e-014 -4.37326e-015
rhumerus -35.6873 -19.4989 -76.4078
rradius 33.2367
rwrist 1.11985
rhand -7.70106 -54.4978
rfingers 7.12502
rthumb 18.1965 -83.6666
lclavicle 1.14301e-014 -4.37326e-015
lhumerus -30.8538 4.6135 79.9964
lradius 25.035
lwrist -4.94969
lhand -21.7318 -14.261
lfingers 7.12502
lthumb 4.66774 15.6676
rfemur -26.1683 3.48269 24.1153
rtibia 10.7789
rfoot -15.2825 -3.41689
rtoes -35.7393
lfemur -40.9537 -0.403345 -20.6685
ltibia 72.2976
lfoot -1.24941 5.09763
ltoes -20.4512
327
root 8.59657 16.2307 17.1988 -158.79 -1.33642 179.547
lowerback -23.8786 -2.22725 -4.0474
upperback 1.84112 -2.00893 0.851833
thorax 15.8351 -1.33667 2.56177
lowerneck -2.18358 -3.29669 -1.24431
upperneck 17.3485 -3.98037 3.64402
head 5.68622 -1.37648 1.16845
rclavicle -7.60351e-015 4.57205e-015
rhumerus -34.744 -19.6595 -76.6373
rradius 33.3332
rwrist 1.78078
rhand -7.87884 -52.1631
rfingers 7.12502
rthumb 18.0254 -81.3478
lclavicle -7.60351e-015 4.57205e-015
lhumerus -30.5753 5.05901 79.7939
lradius 25.0164
lwrist -4.54735
lhand -21.4107 -14.2957
lfingers 7.12502
lthumb 4.97779 15.6258
rfemur -25.5653 3.64703 24.0928
rtibia 10.4445
rfoot -15.4754 -3.4659
rtoes -36.3582
lfemur -41.9387 -0.644819 -20.6544
ltibia 72.1484
lfoot -1.31245 4.92928
ltoes -19.1105
328
root 8.61563 16.2387 17.1045 -158.851 -1.1026 179.463
lowerback -23.6399 -2.15417 -4.26583
upperback 1.76878 -1.8675 0.888274
thorax 15.6054 -1.29127 2.78687
lowerneck -2.01296 -3.21268 -1.54631
upperneck 17.4103 -3.84186 3.76695
head 5.68082 -1.31297 1.26812
rclavicle 2.01021e-014 8.64713e-015
rhumerus -34.4125 -19.2571 -76.6725
rradius 33.6021
rwrist 1.83098
rhand -7.74883 -53.7125
rfingers 7.12502
rthumb 18.1505 -82.8856
lclavicle 2.01021e-014 8.64713e-015
lhumerus -30.9141 5.60052 79.6547
lradius 25.0332
lwrist -4.19283
lhand -21.088 -14.1281
lfingers 7.12502
lthumb 5.2894 15.7858
rfemur -25.0356 4.01738 23.994
rtibia 10.2897
rfoot -15.8383 -3.63877
rtoes -36.6541
lfemur -42.8421 -0.971649 -20.6243
ltibia 71.5624
lfoot -1.12957 4.91305
ltoes -19.9939
329
root 8.63259 16.242 17.0118 -158.801 -0.76144 179.44
lowerback -23.3156 -1.99228 -4.38802
upperback 1.50689 -1.64851 0.876681
thorax 15.0832 -1.19506 2.92892
lowerneck -1.73781 -3.20245 -1.56998
upperneck 17.6883 -3.75575 3.61042
head 5.71605 -1.26128 1.2335
rclavicle 5.46658e-015 7.85199e-015
rhumerus -34.4537 -18.9913 -76.6279
rradius 33.8892
rwrist 1.8442
rhand -7.69544 -54.7521
rfingers 7.12502
rthumb 18.2019 -83.9204
lclavicle 5.46658e-015 7.85199e-015
lhumerus -31.5426 5.82139 79.5201
lradius 25.0691
lwrist -3.82642
lhand -21.0893 -13.5648
lfingers 7.12502
lthumb 5.2881 16.3492
rfemur -24.7374 4.22361 24.0089
rtibia 10.291
rfoot -16.2207 -3.57363
rtoes -36.9806
lfemur -43.8178 -1.0668 -20.5881
ltibia 70.8801
lfoot -1.36548 4.64184
ltoes -22.5361
330
root 8.64632 16.2461 16.9191 -158.845 -0.49152 179.403
lowerback -24.0302 -1.78656 -4.20375
upperback 1.97388 -1.32157 0.583833
thorax 16.0233 -1.03227 2.59378
lowerneck -1.81972 -3.21016 -1.12992
upperneck 17.2289 -3.83552 3.57533
head 5.57904 -1.30151 1.14157
rclavicle -1.66482e-015 -6.4605e-015
rhumerus -33.3357 -19.3062 -77.3477
rradius 34.1065
rwrist 1.93588
rhand -7.56555 -55.3898
rfingers 7.12502
rthumb 18.3268 -84.5464
lclavicle -1.66482e-015 -6.4605e-015
lhumerus -30.8811 5.7268 79.1879
lradius 24.9321
lwrist -3.38423
lhand -21.1406 -13.2382
lfingers 7.12502
lthumb 5.23858 16.677
rfemur -24.2142 4.2166 24.0565
rtibia 10.0514
rfoot -16.4701 -3.50123
rtoes -37.5462
lfemur -44.6219 -1.1719 -20.571
ltibia 70.149
lfoot -1.76706 4.33505
ltoes -23.1688
331
root 8.65861 16.2511 16.8252 -159.028 -0.404494 179.37
lowerback -23.2618 -1.69352 -4.43596
upperback 1.70241 -1.19712 0.693144
thorax 15.2419 -0.987713 2.90791
lowerneck -1.79242 -3.33682 -1.16939
upperneck 17.5605 -3.94063 3.34894
head 5.67744 -1.35036 1.0731
rclavicle 7.47927e-015 1.98785e-016
rhumerus -33.4714 -18.6686 -77.2457
rradius 34.5805
rwrist 1.55581
rhand -7.4965 -55.6374
rfingers 7.12502
rthumb 18.3933 -84.7878
lclavicle 7.47927e-015 1.98785e-016
lhumerus -31.5601 5.82504 79.2469
lradius 24.9526
lwrist -3.2665
lhand -21.1615 -13.1439
lfingers 7.12502
lthumb 5.21843 16.7719
rfemur -23.4771 4.2161 24.1048
rtibia 9.75476
rfoot -16.7487 -3.5132
rtoes -37.923
lfemur -45.1993 -1.56092 -20.4496
ltibia 69.1552
lfoot -2.33078 4.12461
ltoes -22.7017
332
root 8.67029 16.2562 16.7362 -159.114 -0.349571 179.294
lowerback -23.9241 -1.57863 -4.16564
upperback 2.26858 -1.01101 0.411085
thorax 16.2907 -0.883079 2.48741
lowerneck -2.31292 -3.34718 -1.13266
upperneck 17.3709 -4.06043 3.67064
head 5.7158 -1.40393 1.15203
rclavicle -1.93815e-015 -7.95139e-016
rhumerus -32.037 -18.8492 -78.0963
rradius 34.7346
rwrist 1.58417
rhand -7.44979 -55.5008
rfingers 7.12502
rthumb 18.4382 -84.647
lclavicle -1.93815e-015 -7.95139e-016
lhumerus -30.7251 5.83726 78.9376
lradius 24.8438
lwrist -3.10031
lhand -21.3381 -13.0875
lfingers 7.12502
lthumb 5.04786 16.8323
rfemur -22.9048 4.354 24.0492
rtibia 9.58258
rfoot -17.0188 -3.66506
rtoes -38.3457
lfemur -45.8382 -2.0382 -20.3104
ltibia 67.9791
lfoot -2.96114 3.8219
ltoes -22.0241
333
root 8.68192 16.2614 16.6452 -159.155 -0.196091 179.177
lowerback -23.0198 -1.51086 -4.53257
upperback 1.79467 -0.910303 0.564406
thorax 15.1849 -0.857216 2.91933
lowerneck -1.96956 -3.26206 -1.39747
upperneck 17.7256 -3.82841 3.42871
head 5.76285 -1.29753 1.14041
rclavicle 2.36057e-015 -8.49804e-015
rhumerus -32.4214 -18.1557 -77.694
rradius 35.0845
rwrist 1.28458
rhand -7.32097 -55.2731
rfingers 7.12502
rthumb 18.5621 -84.4075
lclavicle 2.36057e-015 -8.49804e-015
lhumerus -31.7707 5.89515 79.0839
lradius 25.0041
lwrist -3.03981
lhand -21.376 -13.0382
lfingers 7.12502
lthumb 5.01131 16.8825
rfemur -22.3642 4.42564 23.9419
rtibia 9.4117
rfoot -17.3672 -3.80541
rtoes -38.3737
lfemur -46.4248 -2.38026 -20.2293
ltibia 66.573
lfoot -3.10537 3.78904
ltoes -16.8942
334
root 8.6951 16.2623 16.5512 -159.198 0.0248591 179.069
lowerback -22.9126 -1.37039 -4.70717
upperback 1.77213 -0.672832 0.505984
thorax 15.0755 -0.759499 3.03702
lowerneck -1.67559 -3.4265 -1.36596
upperneck 17.5252 -4.04921 3.4155
head 5.6546 -1.40985 1.12242
rclavicle 8.01351e-015 3.97569e-016
rhumerus -32.0771 -17.9718 -77.7336
rradius 35.2752
rwrist 1.03076
rhand -7.35928 -55.1065
rfingers 7.12502
rthumb 18.5252 -84.2444
lclavicle 8.01351e-015 3.97569e-016
lhumerus -32.0411 5.71776 79.0389
lradius 25.1001
lwrist -2.9876
lhand -21.2953 -12.8563
lfingers 7.12502
lthumb 5.08926 17.0625
rfemur -21.8156 4.36601 23.9038
rtibia 9.27356
rfoot -17.9563 -3.79305
rtoes -38.1557
lfemur -46.9175 -2.67174 -20.1573
ltibia 64.9855
lfoot -3.16007 4.05165
ltoes -9.85664
335
root 8.70801 16.2591 16.4607 -159.121 0.289753 179.033
lowerback -22.7821 -1.33008 -4.69646
upperback 1.6614 -0.426131 0.431149
thorax 14.8487 -0.556312 3.0527
lowerneck -1.73981 -3.36953 -1.24889
upperneck 17.7849 -3.91705 3.1468
head 5.73608 -1.34142 1.0261
rclavicle -7.0817e-016 -2.28602e-015
rhumerus -31.897 -17.5181 -77.9269
rradius 35.6756
rwrist 0.748091
rhand -7.40506 -55.3436
rfingers 7.12502
rthumb 18.4812 -84.4857
lclavicle -7.0817e-016 -2.28602e-015
lhumerus -32.3374 5.58099 78.934
lradius 25.0758
lwrist -3.10077
lhand -21.3474 -12.9648
lfingers 7.12502
lthumb 5.03891 16.9553
rfemur -21.4584 4.47394 23.9354
rtibia 9.19693
rfoot -18.481 -3.74943
rtoes -38.3056
lfemur -47.5571 -2.86425 -20.0697
ltibia 63.4229
lfoot -3.46807 4.3145
ltoes -13.404
336
root 8.7188 16.2575 16.3681 -159.061 0.55549 179.068
lowerback -22.8342 -1.14926 -4.66258
upperback 1.67331 -0.185835 0.387931
thorax 14.8703 -0.443959 3.06804
lowerneck -1.8108 -3.28176 -1.20753
upperneck 17.7986 -3.78284 3.02973
head 5.74628 -1.28112 0.989021
rclavicle -6.83322e-016 -4.96962e-017
rhumerus -31.5514 -17.1118 -78.1607
rradius 36.1161
rwrist 0.511018
rhand -7.182 -55.3347
rfingers 7.12502
rthumb 18.6958 -84.4563
lclavicle -6.83322e-016 -4.96962e-017
lhumerus -32.3909 5.53824 78.8802
lradius 25.0223
lwrist -3.2461
lhand -21.2867 -13.0854
lfingers 7.12502
lthumb 5.09751 16.8333
rfemur -21.086 4.65288 24.011
rtibia 8.96014
rfoot -18.6534 -3.74311
rtoes -38.9513
lfemur -48.1502 -2.93358 -19.9287
ltibia 61.7593
lfoot -3.77266 4.67713
ltoes -19.0876
